<?xml version="1.0" encoding="UTF-8" standalone="no"?>
<!DOCTYPE svg PUBLIC "-//W3C//DTD SVG 1.1//EN"
 "http://www.w3.org/Graphics/SVG/1.1/DTD/svg11.dtd">
<!-- Generated by graphviz version 2.43.0 (0)
 -->
<!-- Title: %3 Pages: 1 -->
<svg width="263pt" height="404pt"
 viewBox="0.00 0.00 263.00 404.00" xmlns="http://www.w3.org/2000/svg" xmlns:xlink="http://www.w3.org/1999/xlink">
<g id="graph0" class="graph" transform="scale(1 1) rotate(0) translate(4 400)">
<title>%3</title>
<polygon fill="white" stroke="transparent" points="-4,4 -4,-400 259,-400 259,4 -4,4"/>
<!-- A -->
<g id="node1" class="node">
<title>A</title>
<ellipse fill="none" stroke="black" cx="156" cy="-306" rx="27" ry="18"/>
<text text-anchor="middle" x="156" y="-302.3" font-family="Times,serif" font-size="14.00">A</text>
</g>
<!-- D -->
<g id="node2" class="node">
<title>D</title>
<ellipse fill="none" stroke="black" cx="156" cy="-234" rx="27" ry="18"/>
<text text-anchor="middle" x="156" y="-230.3" font-family="Times,serif" font-size="14.00">D</text>
</g>
<!-- A&#45;&gt;D -->
<g id="edge1" class="edge">
<title>A&#45;&gt;D</title>
<path fill="none" stroke="black" d="M156,-287.7C156,-279.98 156,-270.71 156,-262.11"/>
<polygon fill="black" stroke="black" points="159.5,-262.1 156,-252.1 152.5,-262.1 159.5,-262.1"/>
</g>
<!-- H -->
<g id="node5" class="node">
<title>H</title>
<ellipse fill="none" stroke="black" cx="137" cy="-162" rx="27" ry="18"/>
<text text-anchor="middle" x="137" y="-158.3" font-family="Times,serif" font-size="14.00">H</text>
</g>
<!-- D&#45;&gt;H -->
<g id="edge5" class="edge">
<title>D&#45;&gt;H</title>
<path fill="none" stroke="black" d="M151.4,-216.05C149.25,-208.14 146.65,-198.54 144.24,-189.69"/>
<polygon fill="black" stroke="black" points="147.55,-188.52 141.56,-179.79 140.8,-190.36 147.55,-188.52"/>
</g>
<!-- G -->
<g id="node6" class="node">
<title>G</title>
<ellipse fill="none" stroke="black" cx="209" cy="-162" rx="27" ry="18"/>
<text text-anchor="middle" x="209" y="-158.3" font-family="Times,serif" font-size="14.00">G</text>
</g>
<!-- D&#45;&gt;G -->
<g id="edge6" class="edge">
<title>D&#45;&gt;G</title>
<path fill="none" stroke="black" d="M167.76,-217.46C174.62,-208.4 183.42,-196.79 191.12,-186.61"/>
<polygon fill="black" stroke="black" points="194.02,-188.58 197.27,-178.49 188.44,-184.35 194.02,-188.58"/>
</g>
<!-- B -->
<g id="node3" class="node">
<title>B</title>
<ellipse fill="none" stroke="black" cx="228" cy="-306" rx="27" ry="18"/>
<text text-anchor="middle" x="228" y="-302.3" font-family="Times,serif" font-size="14.00">B</text>
</g>
<!-- B&#45;&gt;D -->
<g id="edge2" class="edge">
<title>B&#45;&gt;D</title>
<path fill="none" stroke="black" d="M213.43,-290.83C203.25,-280.94 189.48,-267.55 177.97,-256.36"/>
<polygon fill="black" stroke="black" points="180.41,-253.85 170.8,-249.38 175.53,-258.87 180.41,-253.85"/>
</g>
<!-- C -->
<g id="node4" class="node">
<title>C</title>
<ellipse fill="none" stroke="black" cx="200" cy="-378" rx="27" ry="18"/>
<text text-anchor="middle" x="200" y="-374.3" font-family="Times,serif" font-size="14.00">C</text>
</g>
<!-- C&#45;&gt;A -->
<g id="edge3" class="edge">
<title>C&#45;&gt;A</title>
<path fill="none" stroke="black" d="M190.02,-361.12C184.5,-352.34 177.54,-341.26 171.35,-331.42"/>
<polygon fill="black" stroke="black" points="174.23,-329.42 165.94,-322.82 168.3,-333.15 174.23,-329.42"/>
</g>
<!-- C&#45;&gt;B -->
<g id="edge4" class="edge">
<title>C&#45;&gt;B</title>
<path fill="none" stroke="black" d="M206.64,-360.41C209.91,-352.22 213.94,-342.14 217.62,-332.95"/>
<polygon fill="black" stroke="black" points="220.95,-334.05 221.41,-323.47 214.45,-331.45 220.95,-334.05"/>
</g>
<!-- J -->
<g id="node10" class="node">
<title>J</title>
<ellipse fill="none" stroke="black" cx="82" cy="-90" rx="27" ry="18"/>
<text text-anchor="middle" x="82" y="-86.3" font-family="Times,serif" font-size="14.00">J</text>
</g>
<!-- H&#45;&gt;J -->
<g id="edge13" class="edge">
<title>H&#45;&gt;J</title>
<path fill="none" stroke="black" d="M125.07,-145.81C117.79,-136.55 108.34,-124.52 100.15,-114.09"/>
<polygon fill="black" stroke="black" points="102.84,-111.86 93.91,-106.16 97.34,-116.18 102.84,-111.86"/>
</g>
<!-- I -->
<g id="node11" class="node">
<title>I</title>
<ellipse fill="none" stroke="black" cx="154" cy="-90" rx="27" ry="18"/>
<text text-anchor="middle" x="154" y="-86.3" font-family="Times,serif" font-size="14.00">I</text>
</g>
<!-- H&#45;&gt;I -->
<g id="edge14" class="edge">
<title>H&#45;&gt;I</title>
<path fill="none" stroke="black" d="M141.12,-144.05C143.01,-136.26 145.3,-126.82 147.42,-118.08"/>
<polygon fill="black" stroke="black" points="150.85,-118.82 149.8,-108.28 144.04,-117.17 150.85,-118.82"/>
</g>
<!-- G&#45;&gt;I -->
<g id="edge12" class="edge">
<title>G&#45;&gt;I</title>
<path fill="none" stroke="black" d="M197.07,-145.81C189.79,-136.55 180.34,-124.52 172.15,-114.09"/>
<polygon fill="black" stroke="black" points="174.84,-111.86 165.91,-106.16 169.34,-116.18 174.84,-111.86"/>
</g>
<!-- E -->
<g id="node7" class="node">
<title>E</title>
<ellipse fill="none" stroke="black" cx="101" cy="-378" rx="27" ry="18"/>
<text text-anchor="middle" x="101" y="-374.3" font-family="Times,serif" font-size="14.00">E</text>
</g>
<!-- E&#45;&gt;A -->
<g id="edge7" class="edge">
<title>E&#45;&gt;A</title>
<path fill="none" stroke="black" d="M112.93,-361.81C120.21,-352.55 129.66,-340.52 137.85,-330.09"/>
<polygon fill="black" stroke="black" points="140.66,-332.18 144.09,-322.16 135.16,-327.86 140.66,-332.18"/>
</g>
<!-- E&#45;&gt;D -->
<g id="edge8" class="edge">
<title>E&#45;&gt;D</title>
<path fill="none" stroke="black" d="M102.66,-360.01C104.89,-341.65 109.83,-311.83 120,-288 124.39,-277.72 130.88,-267.34 137.15,-258.53"/>
<polygon fill="black" stroke="black" points="140.11,-260.41 143.25,-250.3 134.48,-256.24 140.11,-260.41"/>
</g>
<!-- F -->
<g id="node8" class="node">
<title>F</title>
<ellipse fill="none" stroke="black" cx="63" cy="-234" rx="27" ry="18"/>
<text text-anchor="middle" x="63" y="-230.3" font-family="Times,serif" font-size="14.00">F</text>
</g>
<!-- E&#45;&gt;F -->
<g id="edge9" class="edge">
<title>E&#45;&gt;F</title>
<path fill="none" stroke="black" d="M96.49,-360.15C89.98,-335.81 77.87,-290.57 70.14,-261.67"/>
<polygon fill="black" stroke="black" points="73.47,-260.58 67.5,-251.82 66.71,-262.39 73.47,-260.58"/>
</g>
<!-- K -->
<g id="node9" class="node">
<title>K</title>
<ellipse fill="none" stroke="black" cx="27" cy="-162" rx="27" ry="18"/>
<text text-anchor="middle" x="27" y="-158.3" font-family="Times,serif" font-size="14.00">K</text>
</g>
<!-- F&#45;&gt;K -->
<g id="edge10" class="edge">
<title>F&#45;&gt;K</title>
<path fill="none" stroke="black" d="M54.65,-216.76C50.29,-208.28 44.85,-197.71 39.96,-188.2"/>
<polygon fill="black" stroke="black" points="42.99,-186.44 35.3,-179.15 36.77,-189.64 42.99,-186.44"/>
</g>
<!-- F&#45;&gt;J -->
<g id="edge11" class="edge">
<title>F&#45;&gt;J</title>
<path fill="none" stroke="black" d="M65.29,-215.87C68.53,-191.67 74.48,-147.21 78.33,-118.39"/>
<polygon fill="black" stroke="black" points="81.84,-118.57 79.7,-108.19 74.9,-117.64 81.84,-118.57"/>
</g>
<!-- K&#45;&gt;J -->
<g id="edge18" class="edge">
<title>K&#45;&gt;J</title>
<path fill="none" stroke="black" d="M38.93,-145.81C46.21,-136.55 55.66,-124.52 63.85,-114.09"/>
<polygon fill="black" stroke="black" points="66.66,-116.18 70.09,-106.16 61.16,-111.86 66.66,-116.18"/>
</g>
<!-- L -->
<g id="node12" class="node">
<title>L</title>
<ellipse fill="none" stroke="black" cx="154" cy="-18" rx="27" ry="18"/>
<text text-anchor="middle" x="154" y="-14.3" font-family="Times,serif" font-size="14.00">L</text>
</g>
<!-- J&#45;&gt;L -->
<g id="edge17" class="edge">
<title>J&#45;&gt;L</title>
<path fill="none" stroke="black" d="M96.57,-74.83C106.75,-64.94 120.52,-51.55 132.03,-40.36"/>
<polygon fill="black" stroke="black" points="134.47,-42.87 139.2,-33.38 129.59,-37.85 134.47,-42.87"/>
</g>
<!-- M -->
<g id="node13" class="node">
<title>M</title>
<ellipse fill="none" stroke="black" cx="82" cy="-18" rx="27" ry="18"/>
<text text-anchor="middle" x="82" y="-14.3" font-family="Times,serif" font-size="14.00">M</text>
</g>
<!-- J&#45;&gt;M -->
<g id="edge16" class="edge">
<title>J&#45;&gt;M</title>
<path fill="none" stroke="black" d="M82,-71.7C82,-63.98 82,-54.71 82,-46.11"/>
<polygon fill="black" stroke="black" points="85.5,-46.1 82,-36.1 78.5,-46.1 85.5,-46.1"/>
</g>
<!-- I&#45;&gt;L -->
<g id="edge15" class="edge">
<title>I&#45;&gt;L</title>
<path fill="none" stroke="black" d="M154,-71.7C154,-63.98 154,-54.71 154,-46.11"/>
<polygon fill="black" stroke="black" points="157.5,-46.1 154,-36.1 150.5,-46.1 157.5,-46.1"/>
</g>
</g>
</svg>
